# xmcd CD database file
#
# Track frame offsets:
#	150
#	17990
#	36384
#	56022
#	78640
#	99208
#	117208
#	138884
#	154796
#	172293
#	192727
#	211124
#
# Disc length: 3251 seconds
#
# Revision: 0
# Processed by: cddbd v1.5.2PL0 Copyright (c) Steve Scherf et al.
# Submitted via: CDex 1.70beta2
#
DISCID=a80cb10c
DTITLE=LEO'N SKY - LIFE IS
DYEAR=2016
DGENRE=Blues
TTITLE0=BACK IN THE DAYS
TTITLE1=STREETS OF LONDON
TTITLE2=24 HOURS 
TTITLE3=STAND BY ME
TTITLE4=DR.BABY
TTITLE5=LITTLE BLUE APPLES
TTITLE6=LIFE IS
TTITLE7=HONKY TONK WOMEN
TTITLE8=LIVING ON A FREEWAVE
TTITLE9=SAY SOMETHING
TTITLE10=SOMETIMES
TTITLE11=LEO'N SKY TEASER
EXTD=YEAR: 2016
EXTT0=
EXTT1=
EXTT2=
EXTT3=
EXTT4=
EXTT5=
EXTT6=
EXTT7=
EXTT8=
EXTT9=
EXTT10=
EXTT11=
PLAYORDER=
